<?xml version="1.0" standalone="no"?>
<!DOCTYPE svg PUBLIC "-//W3C//DTD SVG 20010904//EN"
 "http://www.w3.org/TR/2001/REC-SVG-20010904/DTD/svg10.dtd">
<svg version="1.0" xmlns="http://www.w3.org/2000/svg"
 width="300.000000pt" height="300.000000pt" viewBox="0 0 300.000000 300.000000"
 preserveAspectRatio="xMidYMid meet">
<metadata>
Created by potrace 1.10, written by Peter Selinger 2001-2011
</metadata>
<g transform="translate(0.000000,300.000000) scale(0.100000,-0.100000)"
fill="#000000" stroke="none">
<path d="M1350 2573 c-97 -18 -231 -58 -302 -91 -287 -134 -508 -396 -594
-703 -36 -129 -44 -335 -19 -464 46 -234 131 -398 293 -566 234 -245 552 -358
892 -320 324 37 606 214 787 494 60 91 127 242 136 307 2 14 7 32 10 40 3 8
11 59 17 112 12 104 -2 331 -22 356 -6 6 -8 12 -5 12 4 0 0 21 -17 90 -9 36
-70 160 -116 234 -153 254 -456 454 -747 494 -67 9 -273 13 -313 5z m415 -62
c179 -49 380 -171 503 -306 192 -210 283 -467 269 -764 -14 -308 -160 -584
-409 -771 -186 -141 -394 -210 -628 -210 -289 0 -532 100 -736 304 -95 95
-151 175 -210 300 -74 158 -89 232 -88 446 0 172 2 191 27 273 90 292 271 510
535 645 173 89 280 112 497 108 125 -3 177 -8 240 -25z"/>
<path d="M1335 2465 c-160 -30 -293 -87 -420 -183 -476 -354 -528 -1049 -110
-1468 418 -419 1091 -382 1461 80 223 279 273 668 128 998 -152 346 -483 570
-864 583 -75 3 -142 0 -195 -10z m401 -53 c91 -26 219 -79 235 -98 6 -8 16
-14 22 -14 5 0 39 -22 76 -49 89 -66 192 -184 253 -291 35 -62 78 -169 78
-196 0 -13 4 -25 9 -28 11 -7 21 -66 27 -166 l6 -75 -34 31 c-45 43 -66 52
-115 49 -81 -5 -133 -73 -133 -174 0 -62 23 -116 63 -150 25 -20 114 -23 149
-5 l31 16 -6 -42 c-6 -46 -61 -166 -110 -240 -171 -258 -474 -420 -787 -420
-295 0 -584 145 -757 380 -64 88 -143 253 -143 301 0 19 1 19 22 5 14 -10 44
-16 76 -16 49 0 58 3 92 38 64 64 76 145 33 229 -26 52 -26 53 -7 74 14 15 19
36 19 74 0 43 5 59 25 80 18 19 24 37 24 66 -1 21 2 39 6 39 4 0 22 13 39 29
58 54 37 106 -66 166 -54 32 -83 31 -116 -3 -32 -34 -34 -64 -6 -104 l21 -29
-33 6 c-27 5 -39 2 -57 -15 -59 -56 -45 -114 38 -151 27 -12 50 -28 50 -35 0
-25 -27 -34 -83 -28 -48 6 -57 4 -77 -16 -12 -12 -23 -20 -26 -18 -10 11 19
127 54 216 115 293 355 496 677 573 107 25 325 20 431 -9z m-907 -401 c8 -5
11 -16 7 -26 -5 -14 -9 -15 -20 -6 -19 16 -32 -5 -16 -24 11 -13 16 -12 41 6
l28 20 31 -22 c35 -27 38 -47 10 -77 -24 -26 -29 -26 -54 -7 -22 16 -12 38 14
30 24 -8 34 9 15 25 -11 9 -20 8 -43 -6 -29 -16 -31 -16 -61 5 -36 26 -37 32
-15 66 17 26 39 31 63 16z m-54 -170 c74 -31 87 -50 65 -90 -14 -28 -33 -26
-107 6 -68 30 -77 48 -47 91 8 12 16 22 17 22 2 0 34 -13 72 -29z m30 -213
c-4 -24 -9 -46 -11 -49 -3 -6 -173 27 -182 36 -3 3 -1 10 5 16 11 11 54 5 136
-18 13 -3 17 2 17 20 0 27 7 37 28 37 11 0 12 -9 7 -42z m-200 -38 c18 -20 18
-21 -5 -45 -32 -34 -40 -31 -40 13 0 56 14 66 45 32z m83 -188 c2 -132 1 -142
-16 -142 -23 0 -67 45 -81 83 -14 35 -14 62 -1 109 11 40 65 101 84 95 7 -2
12 -51 14 -145z m67 126 c51 -40 70 -124 41 -191 -16 -37 -59 -81 -76 -75 -7
2 -11 49 -11 138 0 74 0 138 0 143 2 13 17 8 46 -15z m1537 -123 c-1 -92 -5
-141 -12 -143 -17 -6 -60 38 -76 75 -18 42 -18 107 1 143 16 32 63 72 78 67 6
-2 10 -58 9 -142z m77 114 c36 -36 55 -97 46 -149 -7 -44 -59 -110 -86 -110
-18 0 -19 8 -19 145 0 162 4 170 59 114z"/>
<path d="M1472 2387 c-12 -13 -22 -30 -22 -38 0 -8 -10 -1 -24 15 -21 27 -29
30 -72 27 -71 -3 -87 -22 -82 -94 l4 -57 -47 51 c-52 57 -79 61 -110 19 -17
-22 -17 -33 -8 -96 7 -48 19 -81 34 -100 24 -29 24 -29 55 -11 17 9 37 17 44
17 6 0 22 7 34 16 13 9 46 18 74 20 29 2 64 8 79 14 20 9 33 9 47 1 31 -17 77
-13 103 8 21 16 24 30 27 98 3 68 1 81 -18 106 -28 36 -86 38 -118 4z m89 -17
c15 -9 19 -22 19 -70 0 -90 -11 -110 -60 -110 l-40 0 0 49 c0 26 3 69 6 95 6
40 10 46 31 46 13 0 33 -5 44 -10z m-161 -27 c1 -16 7 -56 14 -90 13 -60 12
-63 -5 -63 -12 0 -26 15 -39 41 -26 49 -33 47 -19 -5 8 -30 8 -41 -3 -47 -19
-12 -23 -2 -36 78 -7 40 -13 78 -14 85 -2 6 4 13 13 15 10 2 25 -13 43 -44 27
-48 29 -45 10 32 -5 21 -3 25 15 25 16 0 21 -6 21 -27z m-173 -109 c44 -62 50
-76 36 -81 -9 -3 -21 0 -27 8 -6 8 -19 13 -29 11 -14 -3 -17 -10 -13 -28 4
-14 2 -24 -4 -24 -5 0 -13 0 -17 0 -4 -1 -15 39 -24 87 -16 87 -14 104 16 102
6 0 34 -34 62 -75z"/>
<path d="M1518 2292 c-4 -50 4 -84 16 -71 2 2 7 29 10 60 6 45 4 58 -8 62 -11
5 -15 -6 -18 -51z"/>
<path d="M1175 2230 c9 -42 12 -47 25 -34 6 6 2 20 -11 39 l-20 30 6 -35z"/>
<path d="M1775 2336 c-11 -12 -34 -53 -50 -91 -26 -62 -27 -70 -14 -94 8 -14
22 -27 31 -29 21 -4 115 66 124 93 3 11 13 28 21 37 24 27 12 58 -35 84 -52
29 -52 29 -77 0z m102 -56 c-1 -8 -10 -14 -20 -12 -9 1 -25 3 -34 5 -26 3 -28
-30 -3 -38 29 -9 19 -31 -12 -27 -20 2 -28 -4 -39 -33 -11 -26 -17 -33 -28
-26 -12 8 -9 23 19 93 l34 84 43 -15 c29 -11 42 -21 40 -31z"/>
<path d="M1926 2242 c-36 -41 -86 -118 -86 -134 0 -32 54 -81 88 -81 26 0 32
-4 32 -22 0 -25 58 -85 83 -85 10 0 17 -8 17 -20 0 -29 22 -73 48 -93 17 -14
22 -28 20 -53 -4 -63 64 -121 114 -97 13 7 40 17 60 23 44 13 78 52 78 87 0
37 -49 80 -88 78 l-33 -2 27 28 c26 27 27 31 14 56 -8 16 -23 41 -33 56 -20
30 -32 31 -97 11 -24 -7 -24 -7 -7 10 34 35 40 55 21 84 -38 61 -76 75 -121
45 -26 -17 -27 -17 -19 2 20 50 15 74 -20 109 -21 22 -77 20 -98 -2z m97 -44
c7 -11 -1 -31 -32 -76 -22 -33 -46 -64 -51 -67 -13 -8 -59 20 -67 40 -5 14 55
108 86 132 16 14 46 1 64 -29z m103 -79 c3 -6 -17 -34 -45 -63 -28 -28 -51
-55 -51 -59 0 -19 31 -2 75 43 39 39 51 47 63 38 11 -10 2 -22 -50 -69 -35
-32 -67 -58 -72 -59 -13 0 -56 41 -56 54 0 12 110 126 122 126 4 0 10 -5 14
-11z m124 -153 c0 -7 -13 -25 -30 -41 -41 -39 -38 -53 4 -21 38 29 52 32 58
14 7 -19 -144 -109 -160 -96 -10 9 -8 16 11 37 51 57 54 65 10 37 -38 -25 -69
-28 -61 -5 5 13 151 98 160 93 4 -3 8 -11 8 -18z m90 -181 c16 -47 6 -58 -76
-85 -72 -24 -85 -20 -103 31 -8 22 -7 31 2 34 40 15 153 54 159 54 3 1 12 -15
18 -34z"/>
<path d="M1940 2156 c-32 -48 -37 -66 -17 -66 13 1 67 80 67 99 0 23 -20 10
-50 -33z"/>
<path d="M2248 1758 c-39 -13 -55 -24 -52 -33 5 -11 14 -11 52 2 52 17 66 27
61 41 -2 5 -29 0 -61 -10z"/>
<path d="M875 2172 c-11 -9 -28 -29 -37 -44 -17 -25 -16 -27 3 -52 11 -14 27
-26 34 -26 7 0 26 -13 42 -28 15 -16 41 -37 56 -47 27 -17 28 -17 52 5 32 30
31 47 -4 85 -16 16 -40 50 -54 75 -28 50 -59 61 -92 32z m61 -23 c3 -6 1 -15
-5 -19 -10 -5 -9 -10 1 -21 67 -68 90 -101 80 -111 -9 -9 -24 2 -63 45 -37 42
-55 55 -63 48 -9 -7 -16 -7 -23 0 -8 8 -2 19 20 40 35 32 43 34 53 18z"/>
<path d="M1260 1895 c-153 -37 -280 -169 -321 -331 -7 -26 -10 -82 -7 -133 5
-75 11 -100 41 -162 55 -115 147 -195 264 -232 112 -35 207 -28 322 24 l65 29
156 -155 c117 -116 163 -155 181 -155 41 1 99 62 99 105 0 9 -70 87 -155 174
-85 87 -155 161 -155 166 0 5 12 38 27 74 23 55 27 81 27 156 0 91 -8 129 -50
221 -26 57 -121 152 -184 184 -94 48 -206 60 -310 35z m272 -57 c67 -31 147
-102 181 -162 70 -120 77 -267 19 -391 l-33 -69 170 -170 169 -171 -37 -37
-38 -38 -169 171 c-139 141 -171 169 -184 160 -8 -6 -43 -25 -77 -42 -193 -95
-436 -4 -531 199 -25 52 -27 68 -27 177 0 116 1 122 33 184 40 75 106 142 176
178 72 37 99 42 201 40 73 -2 101 -8 147 -29z"/>
<path d="M1290 1761 c-81 -26 -158 -90 -193 -158 -83 -163 10 -384 182 -435
285 -82 506 249 324 486 -55 71 -126 108 -217 112 -39 2 -82 0 -96 -5z m151
-42 c57 -12 115 -58 156 -123 37 -58 43 -173 14 -242 -35 -81 -128 -154 -195
-154 l-29 0 32 30 c35 34 43 88 16 110 -25 21 -17 49 23 78 54 38 75 68 83
121 9 60 -13 115 -58 145 -27 19 -48 24 -114 25 -76 2 -81 1 -109 -28 -36 -36
-40 -86 -10 -119 27 -29 54 -28 74 3 9 14 25 25 36 25 34 0 24 -42 -20 -85
-40 -39 -41 -41 -34 -91 4 -38 2 -59 -10 -83 -21 -40 -12 -75 28 -106 l31 -25
-29 0 c-81 0 -183 89 -211 186 -21 74 -16 128 21 201 34 68 83 109 150 128 62
17 91 18 155 4z m12 -61 c52 -20 73 -99 42 -158 -15 -30 -61 -60 -89 -60 -9 0
-16 -12 -18 -32 -4 -44 -35 -51 -43 -11 -16 74 -17 71 21 83 52 18 72 89 38
138 -12 18 -24 22 -52 20 -29 -2 -37 -8 -45 -33 -10 -30 -26 -47 -37 -40 -3 2
-4 25 -1 52 l6 48 45 6 c51 6 93 2 133 -13z m-55 -324 c47 -33 9 -107 -46 -88
-37 13 -43 65 -10 88 28 20 28 20 56 0z"/>
<path d="M705 1820 c-4 -6 -5 -12 -4 -13 35 -21 103 -46 110 -42 17 11 9 25
-24 39 -58 24 -75 27 -82 16z"/>
</g>
</svg>
